# xmcd
#
# Track frame offsets:
#	150
#	13015
#	23540
#	34436
#	46180
#	58612
#	68111
#	77298
#	88491
#	99920
#	110782
#	120508
#
# Disc length: 1755 seconds
#
# Revision: 1
# Processed by: cddbd v1.5.2PL0 Copyright (c) Steve Scherf et al.
# Submitted via: audiograbber 1.83.01
#
DISCID=9206d90c
DTITLE=George Jones - Country Church Time
DYEAR=1959
DGENRE=Country
TTITLE0=Taggin' Along
TTITLE1=The Good Old Bible
TTITLE2=Will The Circle Be Unbroken
TTITLE3=My Lord Has Called Me Today
TTITLE4=Take The Devil Out Of Me
TTITLE5=Boat Of Life
TTITLE6=Jesus Wants Me
TTITLE7=A Wandering Soul
TTITLE8=We'll Understand It
TTITLE9=Cup Of Loneliness
TTITLE10=If You Want To Wear A Crown
TTITLE11=My Soul's Been Satisfied
EXTD=
EXTT0=
EXTT1=
EXTT2=
EXTT3=
EXTT4=
EXTT5=
EXTT6=
EXTT7=
EXTT8=
EXTT9=
EXTT10=
EXTT11=
PLAYORDER=
